<?xml version="1.0" encoding="UTF-8"?>
<!DOCTYPE svg PUBLIC "-//W3C//DTD SVG 1.1//EN" "http://www.w3.org/Graphics/SVG/1.1/DTD/svg11.dtd">
<!-- Creator: CorelDRAW X6 -->
<svg xmlns="http://www.w3.org/2000/svg" xml:space="preserve" width="12.2768mm" height="12.2767mm" version="1.1" style="shape-rendering:geometricPrecision; text-rendering:geometricPrecision; image-rendering:optimizeQuality; fill-rule:evenodd; clip-rule:evenodd"
viewBox="0 0 336 336"
 xmlns:xlink="http://www.w3.org/1999/xlink">
 <defs>
  <style type="text/css">
   <![CDATA[
    .fil0 {fill:white}
   ]]>
  </style>
 </defs>
 <g id="Capa_x0020_1">
  <metadata id="CorelCorpID_0Corel-Layer"/>
  <path class="fil0" d="M103 324l41 -84 -89 -196c-33,30 -55,75 -55,123 0,70 42,130 103,155l0 1z"/>
  <path class="fil0" d="M117 51l48 111c1,4 3,7 4,11 1,4 3,8 3,12 1,-4 3,-8 4,-12 1,-4 3,-8 4,-11l45 -111c1,-3 3,-5 5,-7 3,-1 5,-3 10,-3l40 0c-30,-26 -69,-41 -111,-41 -42,0 -81,15 -111,41l44 0c4,0 8,1 10,3 3,1 4,4 5,7z"/>
  <path class="fil0" d="M281 44l-121 270c-1,4 -4,7 -7,8 -3,1 -7,3 -12,3l-34 0c19,7 38,11 60,11 93,0 169,-75 169,-169 0,-49 -21,-93 -55,-123l0 0z"/>
 </g>
</svg>
