<svg enable-background="new 0 0 140 140" height="512" viewBox="0 0 140 140" width="512" xmlns="http://www.w3.org/2000/svg"><circle cx="70" cy="70" fill="#dc594e" r="64"/><path d="m92.6899414 28.5898438 41.3100586 41.290039v.1201172c0 35.3500977-28.6500244 64-64 64h-.0900879l-22.4599609-22.4702148c-.869873-.8100586-1.4199219-1.9599609-1.4199219-3.25v-76.5698243c0-2.4697266 2-4.4697266 4.4699707-4.4697266h39c1.2099609 0 2.2900391.4794922 3.0999756 1.2597656l.0200195.0200195c.0300293.0200197.0499268.0400392.0699463.0698244z" opacity=".1"/><path d="m89.4980087 27.2410107h-38.9960174c-2.4673767 0-4.4676476 2.0001354-4.4676476 4.4676495v76.5742188c0 2.467514 2.0002708 4.4676437 4.4676476 4.4676437h38.9960175c2.4674454 0 4.4676514-2.0001297 4.4676514-4.4676437v-76.5742189c-.0000001-2.467514-2.0002061-4.4676494-4.4676515-4.4676494z" fill="#e6e7e8"/><path d="m49.384945 39.612324h41.229771v57.149391h-41.229771z" fill="#467080"/><g fill="#dad7dc"><path d="m64.03936 33.9112663h-5.8367233c-.2386627 0-.4339333-.1952705-.4339333-.4339333v-.1014671c0-.2386665.1952705-.4339371.4339333-.4339371h5.8367233c.2386627 0 .4339371.1952705.4339371.4339371v.1014671c0 .2386628-.1952743.4339333-.4339371.4339333z"/><path d="m81.7973633 33.9114075h-14.0629044c-.2386627 0-.4339294-.1952744-.4339294-.4339371v-.1014671c0-.2386627.1952667-.4339371.4339294-.4339371h14.0629044c.2386627 0 .4339371.1952744.4339371.4339371v.1014671c0 .2386627-.1952744.4339371-.4339371.4339371z"/><circle cx="70" cy="104.756" r="3.002"/></g><path d="m82.3093033 54.6216774c.0704498-.3334694.1088715-.6786804.1088715-1.0330849 0-2.7481918-2.2278595-4.9760475-4.9759979-4.9760475-.9746323 0-1.8809967.2843742-2.6485672.7686386-1.485199-2.6907578-4.3481598-4.5146332-7.6389618-4.5146332-4.8170128 0-8.7220383 3.9049721-8.7220383 8.7220421 0 .2898979.0157814.5760269.0434113.8586464-2.8954277.4615211-5.1106873 2.9627991-5.1106873 5.9881401 0 3.3531227 2.718277 6.0714035 6.0713997 6.0714035h21.1265297c3.3531265 0 6.0714035-2.7182808 6.0714035-6.0714035-.0000001-2.7458038-1.8238221-5.0633468-4.3253632-5.8137016z" fill="#e6e7e8"/><path d="m60.6347466 53.5885925c-.1794891-.8548164-.1018066-1.772068.1841087-2.6246033.2794304-.8580055.7809067-1.6441231 1.4178772-2.2933121.6485023-.6378212 1.4347229-1.1393547 2.2928391-1.4191017.8525848-.286232 1.7702637-.3634911 2.6250763-.1829414-1.6998596.3494072-3.1723595 1.079258-4.3026772 2.2172775-1.1395111 1.1288338-1.8698883 2.6028748-2.2172241 4.302681z" fill="#ececec"/><path d="m77.2046356 69.999321-7.1998367 7.210762-7.210762-7.210762h3.5235519v-11.0466767h7.3634949v11.0466767z" fill="#e7a04e"/></svg>