<?xml version="1.0" encoding="iso-8859-1"?>
<!-- Generator: Adobe Illustrator 19.0.0, SVG Export Plug-In . SVG Version: 6.00 Build 0)  -->
<svg version="1.1" id="Capa_1" xmlns="http://www.w3.org/2000/svg" xmlns:xlink="http://www.w3.org/1999/xlink" x="0px" y="0px"
	 viewBox="0 0 512 512" style="enable-background:new 0 0 512 512;" xml:space="preserve">
<circle style="fill:#FF6838;" cx="256" cy="256" r="256"/>
<path style="fill:#AE4E32;" d="M512,256c0-10.721-0.669-21.286-1.949-31.661L363,77.288L63.136,271.243l141.066,141.066L149,433.219
	l77.024,77.025C235.859,511.391,245.858,512,256,512C397.385,512,512,397.385,512,256z"/>
<rect x="149" y="77.29" style="fill:#333333;" width="214" height="355.93"/>
<rect x="256" y="77.29" style="fill:#1A1A1A;" width="107" height="355.93"/>
<g>
	<rect id="SVGCleanerId_0" x="171.5" y="98.98" style="fill:#00BAFF;" width="169" height="278.58"/>
</g>
<g>
	<rect id="SVGCleanerId_0_1_" x="171.5" y="98.98" style="fill:#00BAFF;" width="169" height="278.58"/>
</g>
<circle style="fill:#4D4D4D;" cx="256" cy="403.69" r="15.941"/>
<g>
	<rect id="SVGCleanerId_0_2_" x="171.5" y="98.98" style="fill:#00BAFF;" width="169" height="278.58"/>
</g>
<rect x="256" y="98.98" style="fill:#008CC3;" width="84.5" height="278.58"/>
<path style="fill:#333333;" d="M256,387.748v31.882c8.804,0,15.941-7.137,15.941-15.941S264.804,387.748,256,387.748z"/>
<path style="fill:#FFFFFF;" d="M239.666,289.169c35.222,0,63.774-28.553,63.774-63.774c0-32.978-25.032-60.107-57.131-63.429
	C235.278,136.118,209.636,118,179.757,118c-37.795,0-68.802,28.993-72.036,65.948c-1.643-0.154-3.306-0.242-4.99-0.242
	C73.609,183.707,50,207.315,50,236.438s23.609,52.731,52.731,52.731H239.666z"/>
<path style="fill:#E0E0E0;" d="M246.31,161.965C235.278,136.118,209.636,118,179.757,118c-0.477,0-0.949,0.025-1.424,0.034v171.135
	h61.333c35.222,0,63.774-28.552,63.774-63.774C303.441,192.417,278.409,165.288,246.31,161.965z"/>
<polygon style="fill:#FFB344;" points="143.671,182.176 126.671,182.177 126.671,238.702 108.062,220.093 96.041,232.114 
	135.171,271.243 174.301,232.111 162.281,220.091 143.671,238.701 "/>
<g>
	<polygon style="fill:#FF9451;" points="174.301,232.111 162.281,220.091 143.671,238.701 143.671,182.176 135,182.177 135,271.072 
		135.171,271.243 	"/>
	<polygon style="fill:#FF9451;" points="204.931,258.489 221.931,258.49 221.931,201.965 240.541,220.576 252.561,208.555 
		213.431,169.423 174.3,208.551 186.321,220.573 204.931,201.964 	"/>
</g>
<polygon style="fill:#F7674F;" points="252.561,208.555 213.667,169.659 213.667,258.489 221.931,258.49 221.931,201.965 
	240.541,220.576 "/>
<g>
</g>
<g>
</g>
<g>
</g>
<g>
</g>
<g>
</g>
<g>
</g>
<g>
</g>
<g>
</g>
<g>
</g>
<g>
</g>
<g>
</g>
<g>
</g>
<g>
</g>
<g>
</g>
<g>
</g>
</svg>
