<?xml version="1.0" encoding="UTF-8"?>
<!DOCTYPE svg PUBLIC "-//W3C//DTD SVG 1.1//EN" "http://www.w3.org/Graphics/SVG/1.1/DTD/svg11.dtd">
<!-- Creator: CorelDRAW X6 -->
<svg xmlns="http://www.w3.org/2000/svg" xml:space="preserve" width="12.6998mm" height="12.6998mm" version="1.1" style="shape-rendering:geometricPrecision; text-rendering:geometricPrecision; image-rendering:optimizeQuality; fill-rule:evenodd; clip-rule:evenodd"
viewBox="0 0 255 255"
 xmlns:xlink="http://www.w3.org/1999/xlink">
 <defs>
  <style type="text/css">
   <![CDATA[
    .fil2 {fill:#209BD7;fill-rule:nonzero}
    .fil1 {fill:#B9BBD6;fill-rule:nonzero}
    .fil4 {fill:#E9E9F1;fill-rule:nonzero}
    .fil6 {fill:#F58345;fill-rule:nonzero}
    .fil5 {fill:#FFD460;fill-rule:nonzero}
    .fil3 {fill:#15719F;fill-rule:nonzero}
    .fil0 {fill:#F18179;fill-rule:nonzero}
   ]]>
  </style>
 </defs>
 <g id="Capa_x0020_1">
  <metadata id="CorelCorpID_0Corel-Layer"/>
  <g id="_1139947216">
   <path class="fil0" d="M255 127c0,11 -1,22 -4,33 -1,3 -2,7 -3,10 -10,27 -28,49 -51,64 -5,3 -10,6 -16,9 -2,1 -5,2 -8,3 -6,2 -13,4 -19,6l0 0c-6,1 -13,2 -20,2 -2,0 -4,0 -6,0 -2,0 -4,0 -6,0 -13,-1 -26,-3 -38,-8 -3,-1 -6,-2 -9,-4 -6,-3 -11,-6 -16,-9 -3,-2 -7,-5 -10,-7 -18,-14 -31,-33 -40,-54 -1,-3 -2,-6 -3,-9 -4,-12 -5,-24 -5,-37 0,-16 3,-32 8,-46 0,0 0,0 0,0 5,-13 12,-25 21,-35 0,0 0,-1 1,-1 23,-28 58,-45 97,-45 70,0 127,57 127,127z"/>
   <path class="fil1" d="M119 42l0 38c0,4 -3,7 -7,7l0 0c-4,0 -7,-3 -7,-7l0 -37c0,-10 -8,-19 -19,-19 -11,0 -19,8 -19,19l0 38c0,4 -3,7 -7,7l0 0c-4,0 -7,-3 -7,-7l0 -38c0,-18 14,-32 32,-32 18,0 32,14 32,32z"/>
   <path class="fil2" d="M172 46l0 200c-6,2 -13,4 -19,6l0 0c-6,1 -13,2 -20,2 -2,0 -4,0 -6,0 -2,0 -4,0 -6,0 -17,-1 -33,-5 -47,-11 -6,-3 -11,-6 -16,-9 -3,-2 -7,-5 -10,-7 -18,-14 -31,-33 -40,-54l0 -127 164 0z"/>
   <path class="fil3" d="M37 217c-12,-12 -22,-27 -29,-44l0 -127 29 0 0 171z"/>
   <path class="fil4" d="M142 42l0 38c0,4 -3,7 -7,7l0 0c-4,0 -7,-3 -7,-7l0 -37c0,-10 -8,-19 -19,-19 -11,0 -19,8 -19,19l0 38c0,4 -3,7 -7,7l0 0c-4,0 -7,-3 -7,-7l0 -38c0,-18 14,-32 32,-32 18,0 32,14 32,32z"/>
   <path class="fil1" d="M194 88l0 38c0,4 -3,7 -7,7l0 0c-4,0 -7,-3 -7,-7l0 -37c0,-10 -8,-19 -19,-19 -11,0 -19,8 -19,19l0 38c0,4 -3,7 -7,7l0 0c-4,0 -7,-3 -7,-7l0 -38c0,-18 14,-32 32,-32 18,0 32,14 32,32z"/>
   <path class="fil5" d="M247 102l0 68c-10,27 -28,49 -51,64 -5,3 -10,6 -16,9 -2,1 -5,2 -8,3 -6,2 -13,4 -19,6l0 0c-6,1 -13,2 -20,2 -2,0 -4,0 -6,0 -2,0 -4,0 -6,0 -13,-1 -26,-3 -38,-8l0 -145 164 0z"/>
   <path class="fil6" d="M112 254c-5,0 -23,-5 -28,-7l0 -145 29 0 0 152z"/>
   <path class="fil4" d="M216 88l0 38c0,4 -3,7 -7,7l0 0c-4,0 -7,-3 -7,-7l0 -37c0,-10 -8,-19 -19,-19 -11,0 -19,8 -19,19l0 38c0,4 -3,7 -7,7l0 0c-4,0 -7,-3 -7,-7l0 -38c0,-18 14,-32 32,-32 18,0 32,14 32,32z"/>
  </g>
 </g>
</svg>
