<?xml version="1.0" encoding="UTF-8"?>
<!DOCTYPE svg PUBLIC "-//W3C//DTD SVG 1.1//EN" "http://www.w3.org/Graphics/SVG/1.1/DTD/svg11.dtd">
<!-- Creator: CorelDRAW X6 -->
<svg xmlns="http://www.w3.org/2000/svg" xml:space="preserve" width="12.7mm" height="12.7mm" version="1.1" style="shape-rendering:geometricPrecision; text-rendering:geometricPrecision; image-rendering:optimizeQuality; fill-rule:evenodd; clip-rule:evenodd"
viewBox="0 0 426 426"
 xmlns:xlink="http://www.w3.org/1999/xlink">
 <defs>
  <style type="text/css">
   <![CDATA[
    .fil3 {fill:#494D6E;fill-rule:nonzero}
    .fil6 {fill:#4C6196;fill-rule:nonzero}
    .fil4 {fill:#E9E9F1;fill-rule:nonzero}
    .fil2 {fill:#F9AD8B;fill-rule:nonzero}
    .fil1 {fill:#FCCFB7;fill-rule:nonzero}
    .fil7 {fill:#B3B3B3;fill-rule:nonzero}
    .fil5 {fill:#E6E6E6;fill-rule:nonzero}
    .fil0 {fill:#F18179;fill-rule:nonzero}
   ]]>
  </style>
 </defs>
 <g id="Capa_x0020_1">
  <metadata id="CorelCorpID_0Corel-Layer"/>
  <g id="_1139891312">
   <path class="fil0" d="M213 0c118,0 213,95 213,213 0,118 -95,213 -213,213 -118,0 -213,-95 -213,-213 0,-118 95,-213 213,-213z"/>
   <path class="fil1" d="M349 309c-4,10 -8,19 -14,28 -32,45 -88,62 -137,47 -20,-6 -38,-16 -54,-32l-47 -47 -5 -5 -31 -30c-6,0 -11,-2 -15,-4 -8,-5 -14,-14 -14,-24 0,-10 5,-19 14,-24 4,-3 10,-4 15,-4 -6,0 -11,-2 -15,-4 -8,-5 -14,-14 -14,-24 0,-10 5,-19 14,-24 4,-3 10,-4 15,-4l0 -34c-6,0 -11,-2 -15,-4 -8,-5 -14,-14 -14,-24 0,-10 5,-19 14,-24 4,-3 10,-4 15,-4l182 88 7 3 8 4c1,-7 2,-14 4,-21 2,-9 9,-17 17,-21 6,-3 14,-4 21,-2 17,4 27,21 23,38 -5,19 -2,38 8,55 0,0 36,52 19,99z"/>
   <path class="fil2" d="M197 384c-20,-6 -38,-16 -54,-32l-47 -47 -5 -5 82 17c-50,0 -10,46 24,67z"/>
   <path class="fil2" d="M281 249c-1,1 -3,1 -4,1 -3,0 -6,-1 -7,-4 -16,-26 -23,-56 -20,-86 0,-1 0,-2 0,-3l8 4c1,-7 2,-14 4,-21 2,-9 9,-17 17,-21 -11,22 -12,42 -12,42l0 1c0,1 0,2 0,3 -1,21 3,42 12,61 2,4 4,8 6,12 2,4 1,9 -3,11z"/>
   <path class="fil2" d="M243 153l0 138c0,14 -13,26 -30,26l-104 0 -12 -12 -37 -35c-6,0 -11,-2 -15,-4l0 0c11,-14 11,-34 0,-48l0 0c4,-3 10,-4 15,-4 -6,0 -11,-2 -15,-4l2 -2c10,-12 10,-29 1,-42l-3 -4c4,-3 10,-4 15,-4l0 -34c-6,0 -11,-2 -15,-4l5 -8c6,-10 6,-23 -1,-34l-4 -7c4,-3 10,-4 15,-4l182 88z"/>
   <path class="fil3" d="M60 125l0 -72c0,-14 13,-26 30,-26l138 0c16,0 30,11 30,26l0 238c0,14 -13,26 -30,26l-138 0c-16,0 -30,-11 -30,-26l0 -16 0 -150z"/>
   <polygon class="fil4" points="75,273 243,273 243,72 75,72 "/>
   <path class="fil5" d="M407 302c-19,41 -50,74 -88,96 -20,12 -43,20 -66,24l-28 -28 138 -138 45 45z"/>
   <path class="fil6" d="M184 60l-51 0c-4,0 -7,-3 -7,-7l0 0c0,-4 3,-7 7,-7l51 0c4,0 7,3 7,7l0 0c0,4 -3,7 -7,7z"/>
   <path class="fil6" d="M159 282c7,0 13,6 13,13 0,7 -6,13 -13,13 -7,0 -13,-6 -13,-13 0,-7 6,-13 13,-13z"/>
   <path class="fil7" d="M319 398c-20,12 -43,20 -66,24l-28 -28 45 -45 49 49z"/>
   <polygon class="fil6" points="109,133 120,133 120,122 109,122 "/>
   <polygon class="fil6" points="109,223 120,223 120,211 109,211 "/>
   <path class="fil6" d="M217 141l-27 0 0 -27 27 0 0 27zm-40 -40l0 53 53 0 0 -53 -53 0z"/>
   <polygon class="fil6" points="198,133 209,133 209,122 198,122 "/>
   <polygon class="fil6" points="164,189 164,178 153,178 153,200 164,200 164,212 176,212 176,190 164,190 "/>
   <polygon class="fil6" points="207,164 207,175 230,175 230,164 "/>
   <polygon class="fil6" points="153,224 165,224 165,212 153,212 "/>
   <polygon class="fil6" points="142,178 153,178 153,167 142,167 "/>
   <polygon class="fil6" points="218,199 230,199 230,188 218,188 "/>
   <polygon class="fil6" points="218,210 230,210 230,199 218,199 "/>
   <polygon class="fil6" points="173,232 185,232 185,221 173,221 "/>
   <polygon class="fil6" points="173,243 185,243 185,232 173,232 "/>
   <path class="fil6" d="M218 232l-11 0 0 -11 11 0 0 11zm0 -23l-23 0 0 34 34 0 0 -34 -11 0z"/>
   <polygon class="fil6" points="192,165 169,165 169,176 180,176 180,187 192,187 192,198 203,198 203,176 192,176 "/>
   <path class="fil6" d="M101 114l27 0 0 27 -27 0 0 -27zm13 53l0 11 11 0 0 -24 16 0 0 -53 -53 0 0 53 26 0 0 13z"/>
   <path class="fil6" d="M101 203l27 0 0 27 -27 0 0 -27zm-2 -37l-11 0 0 77 53 0 0 -53 -42 0 0 -24z"/>
   <polygon class="fil6" points="164,145 164,122 153,122 153,156 164,156 "/>
  </g>
 </g>
</svg>
