<?xml version="1.0" encoding="UTF-8"?>
<!DOCTYPE svg PUBLIC "-//W3C//DTD SVG 1.1//EN" "http://www.w3.org/Graphics/SVG/1.1/DTD/svg11.dtd">
<!-- Creator: CorelDRAW X6 -->
<svg xmlns="http://www.w3.org/2000/svg" xml:space="preserve" width="12.7mm" height="12.7mm" version="1.1" style="shape-rendering:geometricPrecision; text-rendering:geometricPrecision; image-rendering:optimizeQuality; fill-rule:evenodd; clip-rule:evenodd"
viewBox="0 0 1284 1284"
 xmlns:xlink="http://www.w3.org/1999/xlink">
 <defs>
  <style type="text/css">
   <![CDATA[
    .fil4 {fill:#0081C5;fill-rule:nonzero}
    .fil3 {fill:#209BD7;fill-rule:nonzero}
    .fil2 {fill:#444972;fill-rule:nonzero}
    .fil1 {fill:#494D6E;fill-rule:nonzero}
    .fil5 {fill:#4C6196;fill-rule:nonzero}
    .fil7 {fill:#D4D9ED;fill-rule:nonzero}
    .fil10 {fill:#DF9B49;fill-rule:nonzero}
    .fil11 {fill:#E9E9F1;fill-rule:nonzero}
    .fil6 {fill:#EE405E;fill-rule:nonzero}
    .fil8 {fill:#EF5270;fill-rule:nonzero}
    .fil9 {fill:#FFD460;fill-rule:nonzero}
    .fil0 {fill:#F18179;fill-rule:nonzero}
   ]]>
  </style>
 </defs>
 <g id="Capa_x0020_1">
  <metadata id="CorelCorpID_0Corel-Layer"/>
  <g id="_1139940528">
   <path class="fil0" d="M1284 642c0,189 -82,359 -211,476 -112,101 -260,164 -423,166 -3,0 -5,0 -8,0 -28,0 -56,-2 -83,-5 -168,-22 -316,-109 -418,-235 -88,-110 -141,-250 -141,-402 0,-152 53,-292 141,-402 67,-84 155,-150 256,-192 75,-31 158,-48 245,-48 87,0 170,17 245,48 69,28 131,68 186,118 130,117 211,287 211,476z"/>
   <path class="fil1" d="M1073 165l0 953c-114,103 -265,166 -431,166 -203,0 -383,-94 -501,-240l0 -879c0,-60 46,-110 105,-116 4,0 8,-1 12,-1l698 0c64,0 117,52 117,117z"/>
   <path class="fil2" d="M1073 509l0 224c-18,16 -41,26 -67,26 -55,0 -100,-45 -100,-100 0,55 -45,100 -100,100 -55,0 -100,-45 -100,-100 0,55 -45,100 -100,100 -55,0 -100,-45 -100,-100 0,55 -45,100 -100,100 -55,0 -100,-45 -100,-100 0,55 -45,100 -100,100 -26,0 -49,-10 -67,-26l0 -224 932 0 0 0z"/>
   <path class="fil3" d="M968 235l0 833c0,43 -35,79 -78,79l-565 0c-43,0 -78,-35 -78,-78l0 -833 644 0c43,0 78,0 78,0z"/>
   <path class="fil4" d="M968 509l0 242c-36,-15 -62,-51 -62,-92 0,55 -45,100 -100,100 -55,0 -100,-45 -100,-100 0,55 -45,100 -100,100 -55,0 -100,-45 -100,-100 0,55 -45,100 -100,100 -55,0 -100,-45 -100,-100 0,42 -26,77 -62,92l0 -242 722 0 0 0z"/>
   <path class="fil5" d="M669 1239c0,18 -7,33 -19,45 -3,0 -5,0 -8,0 -28,0 -56,-2 -83,-5 -9,-11 -14,-24 -14,-39 0,-34 28,-62 62,-62 34,0 62,28 62,62z"/>
   <path class="fil5" d="M731 157l-248 0c-11,0 -20,-9 -20,-20 0,-11 9,-20 20,-20l248 0c11,0 20,9 20,20 0,11 -9,20 -20,20z"/>
   <path class="fil5" d="M411 157c-17,0 -26,-22 -13,-34 6,-6 16,-7 23,-2 7,4 11,13 9,21 -2,9 -10,16 -19,16z"/>
   <polygon class="fil6" points="1106,378 108,378 246,234 968,234 "/>
   <polygon class="fil7" points="906,378 308,378 390,234 824,234 "/>
   <polygon class="fil6" points="707,378 507,378 535,234 679,234 "/>
   <path class="fil8" d="M108 528c0,55 45,100 100,100 55,0 100,-45 100,-100l0 -150 -200 0 0 150z"/>
   <path class="fil9" d="M790 979c0,22 -12,31 -33,31 -20,0 -32,-10 -32,-31l0 -93c0,-22 12,-31 32,-31 20,0 33,10 33,31l0 93zm-33 -182c-56,0 -98,24 -98,88l0 93c0,65 43,88 98,88 55,0 98,-24 98,-88l0 -93c0,-65 -43,-88 -98,-88zm-38 -238c-12,0 -22,5 -28,16l-89 183 -141 290c-2,4 -3,9 -3,12 0,16 14,35 37,35 12,0 25,-7 30,-16l188 -386 42 -87c2,-4 3,-9 3,-12 0,-21 -20,-35 -39,-35zm-230 208c0,22 -12,31 -33,31 -20,0 -32,-10 -32,-31l0 -93c0,-22 12,-31 32,-31 20,0 33,10 33,31l0 93zm-33 -182c-56,0 -98,24 -98,88l0 93c0,65 43,88 98,88 55,0 98,-24 98,-88l0 -93c0,-65 -43,-88 -98,-88z"/>
   <path class="fil10" d="M555 675l0 69c-29,-18 -48,-49 -48,-85 0,21 -7,41 -18,57l0 -41c0,-22 -12,-31 -33,-31 -20,0 -32,10 -32,31l0 82c-6,1 -11,1 -17,1 -18,0 -35,-5 -49,-13l0 -71c0,-65 43,-88 98,-88 55,0 98,24 98,88z"/>
   <path class="fil10" d="M758 595c0,4 -1,9 -3,12l-42 87c-4,-11 -6,-23 -6,-35 0,55 -45,100 -100,100 -1,0 -3,0 -4,0l89 -183c5,-11 16,-16 28,-16 18,0 39,14 39,35z"/>
   <path class="fil11" d="M308 528c0,55 45,100 100,100 55,0 100,-45 100,-100l0 -150 -199 0 0 150 0 0z"/>
   <path class="fil8" d="M507 528c0,55 45,100 100,100 55,0 100,-45 100,-100l0 -150 -199 0 0 150 0 0z"/>
   <path class="fil11" d="M707 528c0,55 45,100 100,100 55,0 100,-45 100,-100l0 -150 -199 0 0 150 0 0z"/>
   <path class="fil8" d="M906 528c0,55 45,100 100,100 55,0 100,-45 100,-100l0 -150 -200 0 0 150 0 0z"/>
  </g>
 </g>
</svg>
