<?xml version="1.0" encoding="UTF-8"?>
<!DOCTYPE svg PUBLIC "-//W3C//DTD SVG 1.1//EN" "http://www.w3.org/Graphics/SVG/1.1/DTD/svg11.dtd">
<!-- Creator: CorelDRAW X6 -->
<svg xmlns="http://www.w3.org/2000/svg" xml:space="preserve" width="12.7mm" height="12.7mm" version="1.1" style="shape-rendering:geometricPrecision; text-rendering:geometricPrecision; image-rendering:optimizeQuality; fill-rule:evenodd; clip-rule:evenodd"
viewBox="0 0 182 182"
 xmlns:xlink="http://www.w3.org/1999/xlink">
 <defs>
  <style type="text/css">
   <![CDATA[
    .str0 {stroke:#FFA4A1;stroke-width:3.6627}
    .fil9 {fill:white}
    .fil6 {fill:#00ACD1;fill-rule:nonzero}
    .fil4 {fill:#00B291;fill-rule:nonzero}
    .fil3 {fill:#4E5264;fill-rule:nonzero}
    .fil1 {fill:#586276;fill-rule:nonzero}
    .fil2 {fill:#E0DFDE;fill-rule:nonzero}
    .fil8 {fill:#EF4F74;fill-rule:nonzero}
    .fil7 {fill:#FDC052;fill-rule:nonzero}
    .fil5 {fill:#F3869E;fill-rule:nonzero}
    .fil0 {fill:#F18179;fill-rule:nonzero}
   ]]>
  </style>
 </defs>
 <g id="Capa_x0020_1">
  <metadata id="CorelCorpID_0Corel-Layer"/>
  <g id="_1139946480">
   <path class="fil0" d="M91 0c50,0 91,41 91,91 0,50 -41,91 -91,91 -50,0 -91,-41 -91,-91 0,-50 41,-91 91,-91z"/>
   <path class="fil1" d="M160 9l0 141c-17,19 -41,32 -69,32 -28,0 -52,-12 -69,-32l0 -141c0,-5 4,-9 9,-9l120 0c5,0 9,4 9,9z"/>
   <path class="fil2" d="M153 30l0 127c-1,1 -2,2 -3,3 -15,13 -35,21 -56,21 -1,0 -2,0 -3,0 -1,0 -2,0 -3,0 -21,-1 -41,-9 -56,-21 -1,-1 -2,-2 -3,-3l0 -127c0,-3 2,-5 5,-5l114 0c0,0 1,0 1,0 2,0 4,3 4,5z"/>
   <path class="fil3" d="M114 16l-47 0c-2,0 -4,-2 -4,-4l0 0c0,-2 2,-4 4,-4l47 0c2,0 4,2 4,4l0 0c0,2 -2,4 -4,4z"/>
   <path class="fil4" d="M85 93l-49 0c-2,0 -3,-2 -3,-3l0 -49c0,-2 2,-3 3,-3l49 0c2,0 3,2 3,3l0 49c0,2 -2,3 -3,3z"/>
   <path class="fil5" d="M146 114l-49 0c-2,0 -3,-2 -3,-3l0 -70c0,-2 2,-3 3,-3l49 0c2,0 3,2 3,3l0 70c0,2 -2,3 -3,3z"/>
   <path class="fil6" d="M150 123l0 38c-15,13 -35,21 -56,21l0 -59c0,-2 2,-3 3,-3l49 0c2,0 3,2 3,3z"/>
   <path class="fil7" d="M85 143l-49 0c-2,0 -3,-2 -3,-3l0 -38c0,-2 2,-3 3,-3l49 0c2,0 3,2 3,3l0 38c0,2 -2,3 -3,3z"/>
   <path class="fil8" d="M88 152l0 30c-21,-1 -41,-9 -56,-21l0 -9c0,-2 2,-3 3,-3l49 0c2,0 3,2 3,3z"/>
   <path class="fil9 str0" d="M114 64c-2,-1 -4,-1 -6,0 -3,1 -5,4 -5,7 0,2 0,3 1,4 1,2 2,3 4,4 1,0 2,1 3,1 0,2 1,6 1,8 0,1 0,3 0,4 0,1 0,1 1,2 0,0 1,1 2,1l17 0c1,0 2,-1 2,-2 0,-1 0,-5 0,-6l0 -6c1,0 2,0 3,-1 2,-1 3,-2 4,-4 0,-1 1,-2 1,-3l0 -1c0,-2 -1,-3 -2,-4 0,0 -1,-1 -1,-1 -2,-2 -4,-3 -7,-2 -1,0 -1,0 -1,0 0,0 0,0 0,-1 0,0 0,0 0,-1 -1,-3 -4,-5 -7,-5 -2,0 -2,0 -4,1 -2,1 -4,3 -5,5 0,0 0,0 0,1z"/>
  </g>
 </g>
</svg>
